<svg width="89" height="19" viewBox="0 0 89 19" fill="none" xmlns="http://www.w3.org/2000/svg">
<path d="M3.936 18H8.736V1.416H5.16C4.68 3.744 2.952 5.064 0.576 5.16V8.448H3.936V18ZM21.1421 18.12C21.6461 18.12 21.9581 18.024 22.1981 17.928V16.512H22.1261C21.0461 16.752 20.8061 16.2 20.8061 15.192V9.288C20.8061 6.336 18.8621 5.352 16.2221 5.352C12.9341 5.352 11.3501 7.152 11.2781 9.552H13.1501C13.2221 7.68 14.2301 6.816 16.2461 6.816C18.0221 6.816 19.0301 7.608 19.0301 9C19.0301 10.344 17.8061 10.512 16.0541 10.776C12.9581 11.256 10.6541 11.856 10.6541 14.784C10.6541 17.136 12.5021 18.24 14.8541 18.24C16.9661 18.24 18.2381 17.232 18.9821 16.272H19.0061C19.1981 17.544 19.8701 18.12 21.1421 18.12ZM15.2861 16.752C14.0141 16.752 12.7181 16.392 12.7181 14.736C12.7181 12.912 14.2781 12.576 16.2221 12.216C17.2781 12.024 18.4061 11.712 19.0541 11.304V13.416C19.0541 14.856 17.8781 16.752 15.2861 16.752ZM25.5765 5.592H23.6325V18H25.5765V10.368C25.5765 8.328 27.0165 6.936 28.9845 6.936C30.7365 6.936 31.7925 7.848 31.7925 9.456V18H33.7365V9.288C33.7365 6.72 32.1525 5.304 29.5605 5.304C27.7605 5.304 26.5125 6.048 25.6245 7.224H25.5765V5.592ZM41.6162 18.336C45.3362 18.336 47.5922 15.408 47.5922 11.808C47.5922 8.208 45.3362 5.28 41.6162 5.28C37.9202 5.28 35.6162 8.208 35.6162 11.808C35.6162 15.408 37.9202 18.336 41.6162 18.336ZM41.6162 16.704C38.9762 16.704 37.6082 14.544 37.6082 11.808C37.6082 9.072 38.9762 6.888 41.6162 6.888C44.2562 6.888 45.6002 9.072 45.6002 11.808C45.6002 14.544 44.2562 16.704 41.6162 16.704ZM48.5046 7.176H50.3046V15.672C50.3046 17.424 51.4566 18.072 53.0406 18.072C53.6166 18.072 54.1446 18 54.6006 17.904V16.224H54.5286C54.3126 16.296 53.8806 16.392 53.4966 16.392C52.7046 16.392 52.2486 16.104 52.2486 15.24V7.176H54.6486V5.592H52.2486V1.68H50.3046V5.592H48.5046V7.176ZM58.5999 0.839999H56.6559V18H58.5999V10.368C58.5999 8.328 60.0399 6.936 62.0079 6.936C63.7599 6.936 64.8159 7.848 64.8159 9.456V18H66.7599V9.288C66.7599 6.72 65.1759 5.304 62.5839 5.304C60.7839 5.304 59.5359 6.048 58.6479 7.224H58.5999V0.839999ZM74.6396 18.336C77.4476 18.336 79.3916 16.824 79.9676 14.16H78.0716C77.6396 15.84 76.4396 16.704 74.6396 16.704C72.1436 16.704 70.7756 14.784 70.6316 12.264H80.2316C80.2316 8.16 78.2396 5.28 74.5196 5.28C70.9916 5.28 68.6396 8.208 68.6396 11.808C68.6396 15.408 70.8476 18.336 74.6396 18.336ZM74.5196 6.816C76.7516 6.816 78.0236 8.328 78.1436 10.8H70.6796C70.9676 8.544 72.2156 6.816 74.5196 6.816ZM84.0765 5.592H82.1325V18H84.0765V11.112C84.0765 8.784 85.7565 7.344 87.6765 7.344C88.0605 7.344 88.2525 7.368 88.5405 7.464H88.6125V5.592C88.3725 5.496 88.1805 5.448 87.8205 5.448C86.1645 5.448 84.8685 6.456 84.1245 7.656H84.0765V5.592Z" fill="white"/>
</svg>
