<svg width="16" height="16" viewBox="0 0 16 16" fill="none" xmlns="http://www.w3.org/2000/svg">
<path d="M12.6667 2.66671H12V1.33337H10.6667V2.66671H5.33333V1.33337H4V2.66671H3.33333C2.97971 2.66671 2.64057 2.80718 2.39052 3.05723C2.14048 3.30728 2 3.64642 2 4.00004V12.6667C2 13.0203 2.14048 13.3595 2.39052 13.6095C2.64057 13.8596 2.97971 14 3.33333 14H12.6667C13.0203 14 13.3594 13.8596 13.6095 13.6095C13.8595 13.3595 14 13.0203 14 12.6667V4.00004C14 3.64642 13.8595 3.30728 13.6095 3.05723C13.3594 2.80718 13.0203 2.66671 12.6667 2.66671ZM12.6667 12.6667H3.33333V5.33337H12.6667V12.6667Z" fill="#F3614D"/>
</svg>
