<svg width="16" height="16" viewBox="0 0 16 16" fill="none" xmlns="http://www.w3.org/2000/svg">
<path d="M14.6129 9.4735L12.2 8.2674V8C12.2 7.87921 12.1687 7.76049 12.1092 7.65536C12.0497 7.55024 11.964 7.46231 11.8605 7.4001L8.7 5.5038V3.8H10.1V2.4H8.7V1H7.3V2.4H5.9V3.8H7.3V5.5038L4.1395 7.4001C4.03596 7.46231 3.95028 7.55024 3.89079 7.65536C3.8313 7.76049 3.80002 7.87921 3.8 8V8.2674L1.3871 9.4742C1.27074 9.53216 1.17286 9.62145 1.10448 9.732C1.03609 9.84256 0.999909 9.97 1 10.1V14.3C1 14.4857 1.07375 14.6637 1.20503 14.795C1.3363 14.9263 1.51435 15 1.7 15H14.3C14.4857 15 14.6637 14.9263 14.795 14.795C14.9263 14.6637 15 14.4857 15 14.3V10.1C15 9.8347 14.8502 9.5925 14.6129 9.4735ZM2.4 10.5326L3.8 9.8326V13.6H2.4V10.5326ZM8 10.1C7.6287 10.1 7.2726 10.2475 7.01005 10.5101C6.7475 10.7726 6.6 11.1287 6.6 11.5V13.6H5.2V8.3962L8 6.7162L10.8 8.3962V13.6H9.4V11.5C9.4 11.1287 9.2525 10.7726 8.98995 10.5101C8.7274 10.2475 8.3713 10.1 8 10.1ZM13.6 13.6H12.2V9.8326L13.6 10.5326V13.6Z" fill="#F3614D"/>
</svg>
