<svg width="24" height="24" viewBox="0 0 24 24" fill="none" xmlns="http://www.w3.org/2000/svg">
<path d="M5.003 22H19.003C20.106 22 21.003 21.103 21.003 20V11C21.0031 10.8687 20.9773 10.7386 20.927 10.6173C20.8768 10.4959 20.803 10.3857 20.71 10.293L12.71 2.29299C12.6172 2.20004 12.507 2.1263 12.3857 2.07599C12.2644 2.02568 12.1343 1.99979 12.003 1.99979C11.8717 1.99979 11.7416 2.02568 11.6203 2.07599C11.499 2.1263 11.3888 2.20004 11.296 2.29299L3.296 10.293C3.203 10.3857 3.12924 10.4959 3.07896 10.6173C3.02868 10.7386 3.00286 10.8687 3.003 11V20C3.003 21.103 3.9 22 5.003 22ZM10.003 20V15H14.003V20H10.003ZM5.003 11.414L12.003 4.41399L19.003 11.414L19.004 20H16.003V15C16.003 13.897 15.106 13 14.003 13H10.003C8.9 13 8.003 13.897 8.003 15V20H5.003V11.414Z" fill="#343434"/>
</svg>
