<svg width="16" height="16" viewBox="0 0 16 16" fill="none" xmlns="http://www.w3.org/2000/svg">
<path d="M8.00001 9.33333C9.47068 9.33333 10.6667 8.13733 10.6667 6.66667C10.6667 5.196 9.47068 4 8.00001 4C6.52934 4 5.33334 5.196 5.33334 6.66667C5.33334 8.13733 6.52934 9.33333 8.00001 9.33333ZM8.00001 5.33333C8.73534 5.33333 9.33334 5.93133 9.33334 6.66667C9.33334 7.402 8.73534 8 8.00001 8C7.26468 8 6.66668 7.402 6.66668 6.66667C6.66668 5.93133 7.26468 5.33333 8.00001 5.33333Z" fill="#F3614D"/>
<path d="M7.61332 14.5427C7.72615 14.6233 7.86134 14.6666 7.99999 14.6666C8.13864 14.6666 8.27382 14.6233 8.38665 14.5427C8.58932 14.3994 13.3527 10.96 13.3333 6.66671C13.3333 3.72604 10.9407 1.33337 7.99999 1.33337C5.05932 1.33337 2.66665 3.72604 2.66665 6.66337C2.64732 10.96 7.41065 14.3994 7.61332 14.5427ZM7.99999 2.66671C10.206 2.66671 12 4.46071 12 6.67004C12.014 9.62871 9.07465 12.2854 7.99999 13.1567C6.92599 12.2847 3.98599 9.62737 3.99999 6.66671C3.99999 4.46071 5.79399 2.66671 7.99999 2.66671Z" fill="#F3614D"/>
</svg>
