<svg width="16" height="16" viewBox="0 0 16 16" fill="none" xmlns="http://www.w3.org/2000/svg">
<path d="M3.66668 10C4.27334 10 4.82201 9.76137 5.23801 9.38004L9.41134 11.7647C9.36192 11.9503 9.33572 12.1413 9.33334 12.3334C9.33334 13.62 10.38 14.6667 11.6667 14.6667C12.9533 14.6667 14 13.62 14 12.3334C14 11.0467 12.9533 10 11.6667 10C11.06 10 10.5113 10.2387 10.0953 10.62L5.92201 8.23537C5.96401 8.07071 5.99068 7.90071 5.99401 7.72337L10.0947 5.38004C10.5113 5.76137 11.06 6.00004 11.6667 6.00004C12.9533 6.00004 14 4.95337 14 3.66671C14 2.38004 12.9533 1.33337 11.6667 1.33337C10.38 1.33337 9.33334 2.38004 9.33334 3.66671C9.33334 3.86404 9.36534 4.05204 9.41134 4.23537L5.62201 6.40137C5.41117 6.07426 5.12177 5.80515 4.78023 5.6186C4.43868 5.43204 4.05585 5.33399 3.66668 5.33337C2.38001 5.33337 1.33334 6.38004 1.33334 7.66671C1.33334 8.95337 2.38001 10 3.66668 10ZM11.6667 11.3334C12.218 11.3334 12.6667 11.782 12.6667 12.3334C12.6667 12.8847 12.218 13.3334 11.6667 13.3334C11.1153 13.3334 10.6667 12.8847 10.6667 12.3334C10.6667 11.782 11.1153 11.3334 11.6667 11.3334ZM11.6667 2.66671C12.218 2.66671 12.6667 3.11537 12.6667 3.66671C12.6667 4.21804 12.218 4.66671 11.6667 4.66671C11.1153 4.66671 10.6667 4.21804 10.6667 3.66671C10.6667 3.11537 11.1153 2.66671 11.6667 2.66671ZM3.66668 6.66671C4.21801 6.66671 4.66668 7.11537 4.66668 7.66671C4.66668 8.21804 4.21801 8.66671 3.66668 8.66671C3.11534 8.66671 2.66668 8.21804 2.66668 7.66671C2.66668 7.11537 3.11534 6.66671 3.66668 6.66671Z" fill="#9F9F9F"/>
</svg>
